<svg xmlns="http://www.w3.org/2000/svg" xmlns:xlink="http://www.w3.org/1999/xlink" width="500" zoomAndPan="magnify" viewBox="0 0 375 374.999991" height="500" preserveAspectRatio="xMidYMid meet" version="1.0"><path fill="#8cc84b" d="M 171.75 5.003906 C 181.125 -0.304688 193.078125 -0.328125 202.21875 5.003906 L 342.1875 83.90625 C 350.941406 88.828125 356.800781 98.589844 356.71875 108.679688 L 356.71875 266.882812 C 356.777344 277.394531 350.34375 287.367188 341.109375 292.195312 L 201.890625 370.734375 C 200.707031 371.390625 199.480469 371.960938 198.21875 372.453125 C 196.957031 372.945312 195.671875 373.351562 194.355469 373.671875 C 193.039062 373.992188 191.707031 374.222656 190.359375 374.367188 C 189.015625 374.507812 187.664062 374.5625 186.3125 374.523438 C 184.957031 374.488281 183.613281 374.359375 182.277344 374.140625 C 180.9375 373.925781 179.621094 373.621094 178.328125 373.230469 C 177.03125 372.835938 175.765625 372.359375 174.535156 371.800781 C 173.300781 371.238281 172.113281 370.597656 170.964844 369.878906 L 129.1875 345.738281 C 126.339844 344.039062 123.140625 342.691406 121.125 339.9375 C 122.90625 337.546875 126.070312 337.242188 128.648438 336.1875 C 134.460938 334.335938 139.78125 331.5 145.125 328.5 C 146.472656 327.5625 148.125 327.914062 149.414062 328.757812 L 185.039062 349.359375 C 187.582031 350.824219 190.160156 348.890625 192.339844 347.660156 L 329.039062 270.515625 C 330.726562 269.695312 331.664062 267.914062 331.523438 266.0625 L 331.523438 109.382812 C 331.710938 107.273438 330.503906 105.351562 328.59375 104.496094 L 189.726562 26.296875 C 189.328125 26.019531 188.894531 25.808594 188.429688 25.664062 C 187.964844 25.519531 187.492188 25.445312 187.003906 25.445312 C 186.515625 25.441406 186.042969 25.515625 185.578125 25.65625 C 185.113281 25.800781 184.679688 26.011719 184.277344 26.285156 L 45.609375 104.648438 C 43.734375 105.503906 42.445312 107.402344 42.679688 109.511719 L 42.679688 266.191406 C 42.515625 268.042969 43.5 269.789062 45.199219 270.585938 L 82.253906 291.503906 C 89.214844 295.253906 97.757812 297.363281 105.421875 294.609375 C 106.253906 294.296875 107.0625 293.917969 107.835938 293.484375 C 108.613281 293.046875 109.351562 292.554688 110.054688 292.003906 C 110.757812 291.457031 111.410156 290.855469 112.023438 290.207031 C 112.632812 289.558594 113.191406 288.867188 113.695312 288.136719 C 114.203125 287.402344 114.648438 286.632812 115.039062 285.832031 C 115.425781 285.03125 115.753906 284.203125 116.015625 283.355469 C 116.28125 282.503906 116.476562 281.636719 116.609375 280.753906 C 116.738281 279.875 116.804688 278.988281 116.800781 278.097656 L 116.835938 122.355469 C 116.671875 120.046875 118.851562 118.136719 121.089844 118.371094 L 138.902344 118.371094 C 141.246094 118.3125 143.085938 120.796875 142.769531 123.117188 L 142.734375 279.84375 C 142.746094 293.765625 137.027344 308.90625 124.148438 315.738281 C 108.28125 323.941406 88.664062 322.21875 72.984375 314.332031 L 33.140625 292.300781 C 23.765625 287.613281 17.472656 277.488281 17.53125 266.988281 L 17.53125 108.785156 C 17.539062 107.503906 17.636719 106.230469 17.816406 104.964844 C 17.992188 103.699219 18.257812 102.449219 18.601562 101.214844 C 18.949219 99.984375 19.375 98.78125 19.878906 97.605469 C 20.386719 96.429688 20.96875 95.292969 21.625 94.195312 C 22.28125 93.097656 23.011719 92.046875 23.808594 91.046875 C 24.605469 90.042969 25.464844 89.101562 26.386719 88.214844 C 27.3125 87.328125 28.289062 86.503906 29.320312 85.75 C 30.351562 84.992188 31.429688 84.308594 32.554688 83.695312 Z M 212.109375 114.667969 C 232.347656 113.496094 254.015625 113.894531 272.226562 123.867188 C 286.324219 131.507812 294.140625 147.539062 294.398438 163.21875 C 294 165.328125 291.796875 166.5 289.78125 166.347656 C 283.921875 166.335938 278.039062 166.429688 272.15625 166.3125 C 269.660156 166.40625 268.21875 164.109375 267.902344 161.90625 C 266.214844 154.40625 262.125 146.988281 255.070312 143.367188 C 244.242188 137.941406 231.679688 138.210938 219.867188 138.328125 C 211.242188 138.796875 201.972656 139.535156 194.671875 144.597656 C 189.046875 148.441406 187.359375 156.316406 189.363281 162.433594 C 191.238281 166.921875 196.429688 168.363281 200.660156 169.699219 C 225.058594 176.074219 250.898438 175.558594 274.839844 183.84375 C 284.742188 187.265625 294.433594 193.921875 297.832031 204.292969 C 302.261719 218.191406 300.328125 234.808594 290.449219 245.964844 C 282.433594 255.152344 270.761719 260.027344 259.101562 262.863281 C 243.597656 266.320312 227.519531 266.402344 211.78125 264.855469 C 196.980469 263.167969 181.582031 259.277344 170.15625 249.199219 C 160.382812 240.714844 155.625 227.496094 156.09375 214.746094 C 156.210938 212.589844 158.355469 211.089844 160.429688 211.265625 L 178.007812 211.265625 C 180.375 211.101562 182.109375 213.140625 182.226562 215.367188 C 183.316406 222.398438 186 230.015625 192.234375 234.117188 C 204.257812 241.875 219.339844 241.335938 233.097656 241.558594 C 244.5 241.054688 257.296875 240.902344 266.613281 233.355469 C 271.535156 229.054688 272.976562 221.871094 271.652344 215.683594 C 270.210938 210.457031 264.621094 208.03125 259.933594 206.308594 C 235.851562 198.691406 209.71875 201.457031 185.871094 192.832031 C 176.191406 189.410156 166.828125 182.941406 163.113281 172.992188 C 157.921875 158.929688 160.300781 141.503906 171.234375 130.722656 C 181.78125 120 197.25 115.863281 211.898438 114.386719 Z M 212.109375 114.667969 " fill-opacity="1" fill-rule="nonzero"/></svg>